<?xml version="1.0" encoding="UTF-8"?>
<svg id="afu-rive-import-faithful" xmlns="http://www.w3.org/2000/svg" viewBox="0 0 1410 1410" preserveAspectRatio="xMidYMid meet" role="img" aria-labelledby="title desc">
  <title id="title">Afu faithful Rive import source</title>
  <desc id="desc">Afu rebuilt from the original SVG paths with semantic layer names for Rive rigging.</desc>
  <defs>
    <style>
      .guide { display: none; fill: #ff4d8d; opacity: 0.55; }
      [id="rig/root"],
      [id="body/fill"],
      [id="feet/fill"],
      [id="face/eyes"],
      [id="face/cheeks"],
      [id="face/happy-eyes"],
      [id="ears/detail"],
      [id="eye/left-original"],
      [id="eye/right-original"] {
        transform-box: fill-box;
        transform-origin: center;
      }
      [id="rig/root"] {
        animation: afuHappyIdleCycle 8.8s ease-in-out infinite;
      }
      [id="face/eyes"] {
        animation: afuIdleEyesCycle 8.8s linear infinite;
      }
      [id="face/happy-eyes"] {
        opacity: 0;
        pointer-events: none;
        animation: afuHappyEyesCycle 8.8s linear infinite;
      }
      @keyframes afuHappyIdleCycle {
        0%, 14%, 32%, 100% { transform: translateY(0) scale(1); }
        3% { transform: translateY(22px) scale(1.03,.955); }
        6% { transform: translateY(-42px) scale(.975,1.035); }
        10% { transform: translateY(5px) scale(1.006,.997); }
        18% { transform: translateY(22px) scale(1.03,.955); }
        21% { transform: translateY(-42px) scale(.975,1.035); }
        25% { transform: translateY(5px) scale(1.006,.997); }
        48% { transform: translateY(2px) scale(1.006,.996); }
        62% { transform: translateY(-13px) scale(.992,1.025); }
        78% { transform: translateY(1px) scale(1.004,.998); }
        92% { transform: translateY(-9px) scale(.996,1.017); }
        100% { transform: translateY(0) scale(1); }
      }
      @keyframes afuIdleEyesCycle {
        0%, 33%, 100% { opacity: 0; }
        34.2%, 98.8% { opacity: 1; }
      }
      @keyframes afuHappyEyesCycle {
        0%, 33% { opacity: 1; transform: translateY(0) scale(1); }
        6%, 21% { opacity: 1; transform: translateY(-3px) scale(1.045); }
        10%, 25% { opacity: 1; transform: translateY(1px) scale(.99,1.01); }
        34.2%, 100% { opacity: 0; transform: translateY(0) scale(1); }
      }
      @media (prefers-reduced-motion: reduce) {
        [id="rig/root"],
        [id="body/fill"],
        [id="feet/fill"],
        [id="face/eyes"],
        [id="face/cheeks"],
        [id="face/happy-eyes"],
        [id="ears/detail"],
        [id="eye/left-original"],
        [id="eye/right-original"] {
          animation: none;
        }
      }
    </style>
  </defs>
  <g id="rig/root" data-rive-role="root">
    <g id="reference/original-transparent-silhouette" data-rive-role="hidden-reference" opacity="0">
      <path id="reference/full-transparent-shape" fill="#fdfdfd" data-rive-note="Original transparent compound silhouette from Afu.svg. Keep hidden; useful for bounds checking." d="M0 705 l0 -705 705 0 705 0 0 705 0 705 -705 0 -705 0 0 -705z m832.37 532.74 c29.19 -11.02 47.92 -48.06 53.01 -104.92 2.34 -26.30 -1.10 -58.52 -9.78 -93.63 -4.96 -20.24 -5.09 -25.47 -0.83 -26.30 5.37 -0.96 46.68 -3.86 47.23 -3.17 0.41 0.28 1.24 7.57 1.93 16.25 6.20 71.19 35.11 136.32 70.64 159.45 34.15 22.03 68.43 4.13 81.10 -42.13 2.20 -8.40 2.89 -14.87 3.03 -30.02 0.14 -31.39 -6.61 -61 -23.13 -101.76 -5.92 -14.73 -6.47 -22.44 -1.79 -23.55 1.65 -0.41 8.54 -1.93 15.28 -3.44 11.43 -2.62 27.54 -6.88 44.89 -11.98 4.13 -1.10 10.05 -3.30 13.08 -4.68 3.03 -1.38 7.30 -2.89 9.64 -3.44 7.99 -1.93 42.82 -20.52 53.01 -28.23 15.42 -11.57 30.29 -27.95 36.90 -40.76 9.23 -17.90 11.98 -28.78 11.98 -47.92 0 -25.47 -5.23 -41.58 -22.72 -70.22 -15.83 -26.16 -17.07 -30.71 -22.03 -79.86 -11.02 -110.29 -42.13 -195.11 -97.21 -265.34 l-11.57 -14.73 0 -8.81 c0 -22.31 -5.37 -58.52 -13.77 -92.53 -12.25 -49.43 -26.99 -76.15 -47.37 -85.92 -16.39 -7.99 -43.37 -3.99 -84.41 12.25 -21.07 8.40 -32.22 14.18 -54.94 27.68 -11.43 6.88 -19.55 10.88 -22.03 10.88 -2.20 0 -10.46 -1.93 -18.45 -4.13 -19.55 -5.65 -58.25 -13.08 -83.31 -15.97 -24.37 -2.89 -80.96 -3.30 -100.52 -0.69 -6.75 0.83 -15.70 2.07 -19.55 2.48 l-7.30 0.83 -14.73 -14.32 c-30.02 -28.92 -61.27 -51.50 -92.81 -67.20 -19.14 -9.50 -32.50 -13.91 -42.41 -13.91 -13.36 0 -29.88 10.19 -41.03 25.20 -15.83 21.48 -33.05 65.54 -43.79 112.36 -3.86 17.07 -8.95 47.09 -8.95 53.43 0 3.58 -1.79 5.92 -11.29 14.87 -45.30 41.72 -86.06 99.42 -111.95 157.94 -17.49 39.66 -26.99 72.01 -39.93 136.73 -4.82 24.23 -10.05 47.78 -11.70 52.19 -3.58 10.46 -9.23 20.79 -19.28 34.56 -10.46 14.60 -16.94 26.44 -21.48 39.93 -3.30 9.50 -3.86 13.22 -3.86 26.85 0 14.46 0.28 16.80 4.27 27.26 5.65 14.60 11.84 24.79 22.72 36.63 23.13 25.61 70.09 51.50 128.47 70.91 11.43 3.72 23 7.30 25.89 7.71 4.82 0.96 5.09 1.24 5.09 6.20 0 2.75 -1.79 9.23 -4.13 14.04 -18.18 40.21 -28.92 95.01 -24.92 127.78 3.17 26.44 10.46 45.44 22.44 58.52 8.26 9.09 15.28 13.49 26.85 16.66 7.99 2.20 9.09 2.20 17.90 0 18.18 -4.41 34.01 -17.07 48.33 -38.42 22.72 -34.01 41.31 -84.96 49.29 -135.49 l2.48 -15.56 6.88 0 c3.86 0.14 14.73 1.24 24.23 2.48 l17.21 2.48 0.41 4.96 c0.28 2.75 -1.79 12.94 -4.41 22.72 -9.23 33.60 -13.36 61.55 -13.36 89.92 -0.14 52.46 16.80 92.26 44.75 106.03 28.50 14.04 57.83 -0.96 77.80 -39.93 7.99 -15.70 12.53 -28.50 18.04 -51.22 8.12 -33.87 10.46 -64.58 7.71 -102.58 l-1.10 -16.94 33.18 0 c28.09 0 33.46 0.28 34.01 2.07 0.41 1.10 -0.28 8.95 -1.51 17.49 -3.17 21.21 -4.13 57.28 -2.20 77.52 5.78 58.66 25.20 103 52.19 119.11 16.52 9.78 28.09 11.15 43.65 5.37z"/>
    </g>

    <g id="feet/fill" data-rive-role="secondary-motion-fill">
      <path id="foot/right-inner/fill-original" fill="#bac491" data-rive-note="Original fill path. Keep shape exact; animate as part of right-inner foot group." d="M800.97 1230.45 c-8.81 -2.48 -19.83 -10.33 -25.89 -18.31 -14.32 -18.86 -25.06 -51.77 -28.78 -88.40 -2.75 -28.23 -0.83 -85.10 3.58 -102.58 0.69 -3.17 1.10 -3.17 28.50 -3.99 15.28 -0.55 40.21 -1.38 55.49 -1.79 l27.68 -0.96 2.89 10.88 c10.74 40.07 14.87 83.44 11.29 118.28 -1.93 19.97 -7.85 44.06 -13.63 56.32 -5.65 11.70 -16.25 23.13 -25.61 27.68 -9.09 4.54 -25.34 5.78 -35.53 2.89z"/>
      <path id="foot/left-inner/fill-original" fill="#bac491" data-rive-note="Original fill path. Keep shape exact; animate as part of left-inner foot group." d="M570.75 1219.43 c-18.59 -8.67 -31.39 -35.11 -35.11 -72.29 -3.72 -38.14 0.14 -75.04 12.67 -120.21 l5.51 -20.38 7.57 0 c3.99 0 19.69 1.24 34.56 2.75 14.87 1.51 35.94 3.30 46.82 3.86 10.74 0.69 19.97 1.65 20.38 2.07 1.93 1.93 3.58 34.56 2.75 58.11 -2.20 73.67 -23.55 131.09 -53.84 145.41 -7.30 3.58 -9.78 3.99 -21.34 3.99 -10.88 0 -14.32 -0.55 -19.97 -3.30z"/>
      <path id="foot/right-outer/fill-original" fill="#bac491" data-rive-note="Original fill path. Keep shape exact; animate as part of right-outer foot group." d="M1005.18 1183.63 c-11.43 -3.99 -23.41 -14.87 -34.29 -30.98 -21.07 -30.98 -38.69 -92.53 -38.69 -135.35 0 -10.74 -1.79 -9.64 19.97 -12.12 7.57 -0.83 28.23 -3.99 45.99 -7.02 17.63 -2.89 34.42 -5.37 37.32 -5.37 l5.23 0 6.88 16.94 c15.56 37.87 21.07 61.55 22.03 95.29 0.83 35.11 -3.86 55.49 -15.83 68.30 -9.09 9.78 -15.56 12.25 -30.98 12.25 -7.02 -0.14 -15.01 -0.96 -17.63 -1.93z"/>
      <path id="foot/left-outer/fill-original" fill="#bac491" data-rive-note="Original fill path. Keep shape exact; animate as part of left-outer foot group." d="M368.47 1177.29 c-9.36 -3.72 -16.80 -11.29 -22.31 -22.58 -7.99 -16.39 -9.50 -26.44 -9.50 -60.04 0.14 -26.71 0.55 -31.26 3.86 -46.95 4.54 -21.76 11.57 -44.89 18.59 -61.83 l5.51 -13.08 6.47 -0.41 c4.13 -0.28 14.73 1.51 29.47 5.09 22.03 5.23 54.67 11.84 75.73 15.28 l10.05 1.65 -0.83 8.54 c-4.13 38.28 -16.52 82.62 -32.50 116.21 -14.60 30.29 -28.23 47.37 -44.89 55.49 -11.98 5.92 -28.92 7.02 -39.66 2.62z"/>
    </g>

    <g id="body/fill" data-rive-role="primary-body-fill">
      <path id="body/main-fill-original" fill="#bac491" data-rive-note="Original main body fill compound path. This path carries the real Afu silhouette and internal cut geometry." d="M693.30 1006.97 c-132.88 -4.27 -272.77 -26.44 -368.33 -58.11 -86.20 -28.64 -130.54 -59.90 -143.62 -101.34 -2.48 -7.85 -3.03 -12.81 -3.03 -26.16 0.14 -24.65 5.37 -39.38 21.89 -62.38 10.74 -14.87 19 -29.47 22.86 -41.03 1.65 -4.41 6.47 -26.44 11.02 -48.74 15.42 -77.25 26.30 -111.95 49.85 -159.04 23.96 -47.78 52.60 -87.02 92.81 -126.82 18.73 -18.59 19.69 -19.83 20.52 -26.16 9.91 -73.25 32.22 -141.14 54.67 -166.34 9.36 -10.60 15.56 -13.22 30.98 -13.22 15.56 0 25.89 3.03 46.27 13.36 28.92 14.73 57.83 36.08 87.99 64.99 l16.25 15.56 14.73 -1.93 c19.55 -2.34 97.49 -2.48 117.45 0 32.50 3.99 75.59 12.67 89.92 18.04 6.33 2.48 8.81 1.79 19.97 -5.09 31.95 -20.10 67.88 -36.35 96.66 -43.79 19.97 -5.23 42.96 -5.51 52.60 -0.83 3.58 1.79 8.67 5.78 11.57 8.81 18.18 20.10 36.49 90.33 39.79 152.43 0.96 17.49 1.24 18.45 9.64 28.37 18.73 22.44 35.25 48.61 50.40 79.86 28.50 58.80 41.86 111.12 50.12 196.22 3.86 38.14 6.61 47.78 20.93 71.19 19.14 31.26 23 43.37 23 71.33 0 22.03 -1.79 30.84 -9.78 47.37 -5.92 12.39 -23.41 30.84 -38.28 40.48 -61.14 39.24 -191.26 65.82 -354.57 72.57 -29.88 1.24 -103.68 1.51 -134.25 0.41z m192.77 -231.74 c1.24 -1.93 -3.86 -4.68 -23.27 -12.39 -17.07 -6.75 -24.65 -8.12 -19.97 -3.44 1.93 1.93 37.73 16.94 40.76 17.07 0.83 0.14 1.93 -0.41 2.48 -1.24z m11.15 -42.82 c2.34 -3.86 -3.17 -5.23 -26.02 -6.88 -20.10 -1.38 -23.41 -1.38 -25.20 0.41 -3.58 3.44 0.55 4.96 17.35 6.33 23 1.79 32.77 1.93 33.87 0.14z m-558.22 -8.95 c16.25 -3.99 20.65 -6.20 18.04 -8.95 -1.24 -1.24 -5.37 -0.69 -18.59 2.75 -9.36 2.48 -17.76 5.37 -18.86 6.33 -2.34 2.20 -0.69 5.23 2.34 4.27 1.38 -0.41 8.95 -2.34 17.07 -4.41z m529.71 -27.95 c24.23 -5.37 28.23 -7.02 25.20 -10.05 -1.24 -1.24 -6.75 -0.41 -23.96 3.44 -21.76 4.96 -29.60 7.99 -27.95 10.60 1.10 1.93 0.28 2.07 26.71 -3.99z m-513.60 -7.57 c2.89 -3.44 -2.20 -5.23 -22.31 -7.85 -13.77 -1.65 -19.97 -1.93 -21.21 -0.96 -2.48 1.93 -2.20 3.44 0.69 4.54 1.79 0.83 29.60 4.96 39.66 6.06 0.83 0 2.34 -0.69 3.17 -1.79z m406.06 -14.46 c5.92 -3.03 15.42 -12.67 19 -19.55 3.72 -6.88 3.44 -22.17 -0.41 -29.60 -3.72 -7.02 -12.67 -15.97 -19.42 -19.28 -7.99 -3.99 -20.10 -3.44 -28.09 1.24 -17.07 10.05 -24.79 29.74 -17.76 45.71 3.99 8.95 7.44 13.36 13.77 17.76 11.70 8.12 22.03 9.23 32.91 3.72z m-399.73 -16.80 c0 -2.34 -37.45 -19.55 -40.34 -18.45 -1.93 0.69 -1.93 1.10 0.14 3.17 2.75 2.62 36.76 18.18 38.83 17.63 0.83 -0.14 1.38 -1.24 1.38 -2.34z m79.86 -12.12 c12.12 -5.51 21.89 -20.65 21.89 -33.87 0 -12.81 -8.67 -26.58 -20.52 -32.63 -10.19 -5.23 -19.28 -3.17 -29.05 6.88 -15.15 15.42 -14.46 39.79 1.65 53.98 9.64 8.40 16.66 9.91 26.02 5.65z m574.05 -252.26 c3.03 -3.58 3.58 -5.51 3.58 -13.08 0 -19.42 -8.54 -60.31 -16.66 -79.86 -2.34 -5.65 -6.33 -12.53 -8.95 -15.28 -4.27 -4.41 -5.23 -4.82 -10.60 -4.27 -17.07 1.93 -75.32 39.11 -75.32 48.06 0 3.03 8.26 9.23 28.23 21.48 11.43 6.88 32.50 20.38 46.82 29.88 14.46 9.50 26.85 17.35 27.81 17.35 0.83 0 3.17 -1.93 5.09 -4.27z m-529.71 -82.34 c7.02 -3.03 23.82 -9.36 37.18 -13.91 13.49 -4.68 25.75 -9.64 27.13 -11.02 2.48 -2.34 2.48 -3.03 0.69 -6.33 -5.23 -10.05 -51.64 -45.71 -65.54 -50.67 -5.51 -1.93 -6.06 -1.79 -10.19 0.96 -11.15 7.57 -25.20 45.16 -30.84 83.17 -3.03 19.83 -2.62 20.10 14.87 10.88 7.71 -4.13 19.83 -10.05 26.71 -13.08z"/>
    </g>

    <g id="body/outline-and-foot-contour" data-rive-role="silhouette-lock">
      <path id="body/main-outline-original" fill="#a7b17c" data-rive-note="Original outline compound path. This is the silhouette lock for Afu and should remain visually unchanged." d="M801.39 1243.94 c-4.13 -1.10 -11.70 -4.54 -16.80 -7.44 -26.99 -16.11 -46.40 -60.31 -52.19 -119.11 -1.93 -19.42 -0.83 -67.06 1.93 -84.41 0.96 -6.20 1.51 -11.70 1.10 -11.98 -0.28 -0.41 -13.49 -0.69 -29.33 -0.69 l-28.78 0 1.10 10.74 c1.93 18.04 1.10 58.80 -1.51 76.01 -4.82 33.32 -13.36 62.51 -24.37 83.99 -8.40 16.25 -18.31 28.64 -29.05 35.80 -11.57 7.71 -20.65 10.05 -35.53 9.36 -10.05 -0.41 -13.49 -1.24 -21.21 -5.09 -32.36 -15.83 -49.29 -64.99 -44.75 -129.43 1.65 -23.55 6.33 -50.53 13.08 -75.04 2.62 -9.78 4.41 -18.18 3.72 -18.73 -1.24 -1.10 -38.83 -6.20 -39.52 -5.37 -0.28 0.28 -1.51 7.44 -2.75 15.70 -8.12 50.40 -26.58 101.21 -49.29 135.22 -23 34.42 -52.05 47.37 -81.65 36.21 -11.02 -4.27 -24.65 -17.76 -30.71 -30.29 -17.90 -37.73 -16.39 -94.46 4.13 -154.08 2.89 -8.54 7.16 -19.69 9.36 -24.65 2.34 -4.82 4.13 -9.36 4.13 -9.91 0 -0.55 -2.34 -1.51 -5.09 -2.07 -2.89 -0.41 -14.46 -3.99 -25.89 -7.71 -58.38 -19.42 -105.34 -45.30 -128.47 -70.91 -10.74 -11.84 -17.07 -22.03 -22.72 -36.63 -4.13 -11.02 -4.41 -12.25 -4.27 -31.39 0 -18.18 0.28 -20.93 3.86 -30.98 4.68 -13.49 11.02 -25.47 21.48 -39.93 10.05 -13.77 15.70 -24.10 19.28 -34.56 1.65 -4.41 6.88 -27.95 11.70 -52.19 12.94 -64.72 22.44 -97.08 39.93 -136.73 25.89 -58.52 66.64 -116.21 111.95 -157.94 9.50 -8.95 11.29 -11.29 11.29 -14.87 0 -6.33 5.09 -36.35 8.95 -53.43 7.99 -34.42 19.55 -68.02 32.08 -92.81 15.28 -30.43 33.46 -44.75 56.87 -44.75 14.04 0 25.47 3.44 46.54 13.91 31.53 15.56 62.79 38.28 92.53 66.92 l14.60 14.18 6.75 -1.24 c14.04 -2.75 53.98 -4.68 77.80 -3.86 42.41 1.51 91.15 8.67 126.40 18.86 l14.46 4.13 17.90 -10.88 c22.72 -13.49 33.87 -19.28 54.94 -27.68 31.12 -12.39 52.05 -17.07 72.15 -16.25 16.52 0.69 23.82 3.72 34.84 14.73 13.08 13.22 23.68 37.04 33.05 75.18 8.40 34.01 13.77 70.22 13.77 92.53 l0 8.81 11.57 14.73 c55.08 70.22 86.20 155.04 97.21 265.34 4.96 49.16 6.20 53.70 22.03 79.86 18.31 30.16 22.72 44.48 22.72 74.36 0 17.76 -0.41 22.03 -3.17 30.98 -7.57 24.10 -22.44 44.34 -45.71 61.83 -10.19 7.71 -45.03 26.30 -53.01 28.23 -2.34 0.55 -6.61 2.07 -9.64 3.44 -3.03 1.38 -8.95 3.58 -13.08 4.68 -18.59 5.51 -34.84 9.64 -47.92 12.67 -7.85 1.79 -14.60 3.58 -15.01 3.99 -0.41 0.28 2.34 8.54 6.20 18.31 8.67 22.31 10.46 27.40 14.60 44.06 5.92 23.68 7.02 33.18 6.88 57.56 -0.14 19.42 -0.55 25.20 -3.03 34.15 -8.95 32.91 -27.26 50.53 -53.56 51.64 -24.79 1.10 -44.34 -10.60 -64.17 -38.55 -8.40 -11.70 -21.34 -38.97 -27.54 -57.56 -8.26 -24.92 -11.57 -42.55 -15.56 -82.34 -0.69 -6.75 -1.10 -7.30 -3.72 -6.61 -1.65 0.41 -10.60 1.10 -19.83 1.65 -9.23 0.55 -17.35 1.38 -18.31 1.93 -0.96 0.55 -0.28 5.92 2.62 17.35 16.66 67.33 13.49 130.40 -8.54 173.36 -14.87 28.92 -42.41 42.96 -69.81 35.66z m31.26 -20.65 c9.09 -4.41 19.69 -15.97 25.34 -27.54 5.78 -12.25 11.57 -36.21 13.63 -56.32 3.30 -31.53 -0.69 -70.78 -11.29 -110.02 l-2.89 -10.88 -22.86 0.96 c-12.53 0.41 -35.66 1.24 -51.36 1.79 -28.09 0.83 -28.50 0.83 -29.19 3.99 -2.34 8.95 -4.96 40.90 -4.96 59.21 0 44.20 6.75 80 20.38 107.26 15.42 31.26 39.24 43.10 63.20 31.53z m-224.72 -8.67 c29.60 -13.91 51.36 -71.19 53.84 -141.96 0.83 -19.55 -0.96 -51.50 -2.75 -53.29 -0.41 -0.41 -9.64 -1.38 -20.38 -2.07 -10.88 -0.55 -31.95 -2.34 -46.82 -3.86 -14.87 -1.51 -28.64 -2.75 -30.43 -2.75 -3.03 0 -3.72 1.38 -8.40 17.76 -18.45 64.85 -19 123.65 -1.51 160.83 12.25 26.02 34.15 35.94 56.46 25.34z m429.61 -36.08 c34.01 -15.97 37.87 -83.99 8.81 -157.52 -4.54 -11.29 -8.67 -21.48 -9.36 -22.58 -0.96 -1.51 -6.20 -0.96 -29.88 3.17 -15.83 2.75 -38 6.06 -49.16 7.44 -11.15 1.51 -20.79 3.03 -21.21 3.58 -0.55 0.41 -0.14 8.81 0.69 18.45 6.75 71.05 38.42 136.59 71.88 148.44 7.71 2.89 21.07 2.34 28.23 -0.96z m-633.26 -8.12 c19.42 -9.50 37.32 -34.84 53.29 -75.04 9.78 -24.65 19.14 -60.86 22.72 -88.40 l1.24 -8.54 -9.78 -1.51 c-20.65 -3.44 -53.43 -10.05 -75.46 -15.28 -12.67 -3.03 -24.10 -5.37 -25.34 -5.09 -4.82 0.96 -19.28 42.41 -26.30 75.32 -3.30 15.56 -3.72 20.24 -3.72 44.20 0 23 0.41 28.37 2.89 37.32 10.19 36.76 32.91 50.67 60.45 37.04z m419.14 -167.99 c122.96 -5.09 232.57 -22.31 302.24 -47.50 34.29 -12.39 55.77 -25.06 73.80 -43.24 19 -19.14 26.58 -37.87 26.58 -65.54 0 -23.41 -4.82 -37.45 -23 -67.20 -14.32 -23.41 -17.07 -33.05 -20.93 -71.19 -8.26 -85.10 -21.62 -137.42 -50.12 -196.22 -15.15 -31.26 -31.67 -57.42 -50.40 -79.86 -8.40 -9.91 -8.67 -10.88 -9.64 -28.37 -3.30 -62.10 -21.62 -132.33 -39.79 -152.43 -2.89 -3.03 -7.99 -7.02 -11.57 -8.81 -22.31 -10.88 -82.89 8.12 -141 44.48 -5.78 3.72 -12.12 7.02 -13.91 7.44 -2.07 0.55 -10.19 -0.96 -20.38 -3.86 -29.19 -8.26 -45.71 -11.43 -77.66 -15.56 -25.06 -3.17 -91.15 -3.58 -115.66 -0.69 -9.09 1.10 -17.90 2.07 -19.55 1.93 -2.07 -0.14 -9.09 -5.78 -19.28 -15.56 -30.29 -29.05 -59.21 -50.40 -88.13 -65.13 -26.16 -13.36 -43.79 -16.66 -56.46 -10.46 -26.71 12.94 -55.22 87.99 -67.20 176.66 -0.83 6.33 -1.79 7.57 -20.52 26.16 -40.21 39.79 -68.85 79.04 -92.81 126.82 -23.55 47.09 -34.42 81.79 -49.85 159.04 -4.54 22.31 -9.36 44.34 -11.02 48.74 -3.86 11.57 -12.12 26.16 -22.86 41.03 -15.42 21.34 -21.62 38 -21.76 58.25 -0.41 50.95 45.85 89.92 146.51 123.38 128.33 42.55 319.04 64.85 494.33 57.69z"/>
    </g>

    <g id="face/cheeks" data-rive-role="emotion-accent">
      <path id="cheek/right/bottom-original" fill="#a7b17c" data-rive-note="Original right lower cheek mark." d="M860.73 773.71 c-21.34 -8.81 -24.92 -11.02 -24.92 -15.70 0 -3.58 3.99 -7.57 7.57 -7.57 3.99 0 44.20 16.39 46.68 19.14 4.54 5.09 0.83 12.67 -6.20 12.39 -1.79 0 -12.25 -3.72 -23.13 -8.26z"/>
      <path id="cheek/right/middle-original" fill="#a7b17c" data-rive-note="Original right middle cheek mark." d="M859.22 736.39 c-8.67 -0.69 -16.52 -1.93 -17.63 -2.75 -2.48 -2.07 -1.51 -10.74 1.38 -12.67 1.65 -0.96 10.19 -0.96 28.78 0.28 21.21 1.24 26.99 2.07 28.92 3.86 2.89 2.62 3.30 6.33 1.24 10.33 -1.38 2.34 -2.89 2.62 -14.18 2.48 -7.02 -0.14 -19.83 -0.83 -28.50 -1.51z"/>
      <path id="cheek/left/bottom-original" fill="#a7b17c" data-rive-note="Original left lower cheek mark." d="M315.60 731.71 c-3.72 -2.62 -3.99 -8.81 -0.55 -11.98 3.03 -2.75 39.79 -12.25 43.24 -11.15 5.65 1.79 6.61 11.43 1.38 14.18 -1.38 0.69 -10.19 3.30 -19.69 5.65 -9.36 2.34 -18.04 4.54 -19.14 4.82 -1.24 0.41 -3.58 -0.28 -5.23 -1.51z"/>
      <path id="cheek/right/top-original" fill="#a7b17c" data-rive-note="Original right upper cheek mark." d="M838.56 703.62 c-1.51 -1.51 -2.75 -3.58 -2.75 -4.54 0 -3.30 4.13 -7.57 8.67 -9.09 10.74 -3.44 48.33 -11.15 50.67 -10.46 6.20 1.93 6.75 11.98 0.83 14.46 -2.75 1.24 -51.36 12.39 -53.70 12.39 -0.55 0 -2.20 -1.24 -3.72 -2.75z"/>
      <path id="cheek/left/middle-original" fill="#a7b17c" data-rive-note="Original left middle cheek mark." d="M328.40 691.23 c-9.78 -1.38 -18.31 -2.62 -18.86 -2.62 -2.20 -0.28 -5.23 -4.68 -5.23 -7.57 0 -1.79 1.24 -4.27 2.75 -5.65 2.75 -2.48 3.58 -2.48 24.51 -0.14 11.84 1.38 23.13 3.17 25.06 3.99 4.96 2.34 6.75 8.40 3.44 11.98 -3.03 3.30 -7.02 3.30 -31.67 0z"/>
      <path id="cheek/left/top-original" fill="#a7b17c" data-rive-note="Original left upper cheek mark." d="M338.32 656.26 c-21.89 -9.91 -25.61 -12.67 -23.55 -18.31 2.62 -7.57 6.61 -7.30 28.37 2.48 21.21 9.50 24.51 11.84 24.51 16.94 0 3.58 -4.54 7.85 -8.26 7.57 -1.10 0 -10.60 -3.99 -21.07 -8.67z"/>
    </g>

    <g id="face/eyes" data-rive-role="expression-core">
      <path id="eye/right-original" fill="#484c54" data-rive-note="Original right dark oval eye. Preserve scale and placement." d="M747.34 598.28 C769.20 598.28 786.93 616.62 786.93 639.25 C786.93 661.88 769.20 680.21 747.34 680.21 C725.48 680.21 707.75 661.88 707.75 639.25 C707.75 616.62 725.48 598.28 747.34 598.28 Z"/>
      <path id="eye/left-original" fill="#484c54" data-rive-note="Original left dark oval eye. Preserve the slight asymmetry." d="M431.73 569.09 C452.89 569.09 470.03 587.68 470.03 610.63 C470.03 633.57 452.89 652.17 431.73 652.17 C410.58 652.17 393.43 633.57 393.43 610.63 C393.43 587.68 410.58 569.09 431.73 569.09 Z"/>
    </g>
    <g id="face/happy-eyes" data-rive-role="preview-only-soft-happy-chevrons">
      <ellipse id="happy-eye/left-cover" cx="431.73" cy="610.63" rx="58" ry="56" fill="#bac491"/>
      <ellipse id="happy-eye/right-cover" cx="747.34" cy="639.25" rx="60" ry="56" fill="#bac491"/>
      <path id="happy-eye/left-top" d="M398 587 C418 597 436 606 452 616" fill="none" stroke="#484c54" stroke-width="28" stroke-linecap="round"/>
      <path id="happy-eye/left-bottom" d="M452 616 C434 628 418 640 400 649" fill="none" stroke="#484c54" stroke-width="28" stroke-linecap="round"/>
      <path id="happy-eye/right-top" d="M780 616 C761 626 744 635 728 645" fill="none" stroke="#484c54" stroke-width="28" stroke-linecap="round"/>
      <path id="happy-eye/right-bottom" d="M728 645 C746 657 762 669 781 678" fill="none" stroke="#484c54" stroke-width="28" stroke-linecap="round"/>
    </g>

    <g id="ears/detail" data-rive-role="ear-expression">
      <path id="ear/right-inner-contour-original" fill="#929e66" data-rive-note="Original right inner ear compound contour." d="M978.33 383.34 c-14.32 -9.50 -35.39 -23 -46.82 -29.88 -25.34 -15.42 -28.23 -18.04 -28.23 -25.61 0 -4.54 0.96 -6.75 5.09 -11.29 10.88 -12.12 53.15 -37.04 69.67 -41.31 9.50 -2.34 16.39 0 21.48 7.16 11.43 15.70 23.55 65.41 23.55 96.80 0 11.98 -0.28 13.36 -3.58 17.21 -2.89 3.58 -4.54 4.27 -9.23 4.27 -5.09 0 -9.09 -2.20 -31.95 -17.35z m27.40 -8.40 c-3.99 -37.32 -16.66 -81.65 -23.27 -81.65 -5.37 0 -57.01 30.16 -57.14 33.32 0 0.41 6.06 4.54 13.49 9.09 7.30 4.54 25.20 16.11 39.52 25.47 14.46 9.50 26.58 17.21 26.99 17.35 0.41 0.14 0.55 -1.51 0.41 -3.58z"/>
      <path id="ear/left-inner-contour-original" fill="#929e66" data-rive-note="Original left inner ear compound contour." d="M440.49 333.08 c-2.75 -2.75 -2.89 -3.86 -2.07 -13.49 3.44 -38.14 19.97 -86.33 32.50 -94.87 8.67 -5.78 17.21 -3.30 39.24 11.29 18.18 12.25 42.13 33.32 45.30 39.79 5.23 11.29 2.07 14.04 -28.50 24.37 -27.54 9.36 -43.51 16.11 -63.62 26.71 -18.04 9.64 -19.14 9.91 -22.86 6.20z m34.01 -31.53 c0.83 0 4.27 -1.51 7.57 -3.30 5.65 -3.17 30.84 -12.94 45.16 -17.63 l6.06 -1.93 -11.57 -9.78 c-11.15 -9.36 -37.59 -27.95 -39.79 -27.95 -4.54 0 -16.94 33.18 -22.58 59.62 l-1.79 8.81 7.71 -3.86 c4.27 -2.20 8.40 -3.99 9.23 -3.99z"/>
      <path id="ear/right-inner-fill-original" fill="#929e66" data-rive-note="Original right inner ear fill detail." d="M999.67 381.83 c-11.43 -7.71 -56.87 -37.04 -70.50 -45.44 -6.75 -4.13 -12.12 -8.40 -12.12 -9.50 0 -3.30 23.27 -19.14 44.61 -30.16 11.29 -5.92 15.97 -7.57 20.79 -7.57 5.78 0 6.33 0.41 8.67 5.23 8.54 16.94 16.66 51.50 19 80.55 1.10 14.18 0.69 14.46 -10.46 6.88z"/>
      <path id="ear/left-inner-fill-original" fill="#929e66" data-rive-note="Original left inner ear fill detail." d="M452.47 312.98 c3.72 -26.44 14.73 -62.38 22.72 -73.53 2.62 -3.72 3.58 -4.13 7.16 -3.44 7.99 1.65 33.32 19.14 50.95 35.25 5.23 4.82 8.95 9.09 8.26 9.64 -0.55 0.55 -5.37 2.48 -10.74 4.13 -16.11 5.23 -38.14 13.77 -44.61 17.35 -3.30 1.79 -6.75 3.30 -7.57 3.30 -0.83 0 -6.88 2.75 -13.49 6.20 -6.61 3.44 -12.39 6.20 -12.67 6.20 -0.41 0 -0.28 -2.34 0 -5.09z"/>
    </g>

    <g id="rig/anchors" data-rive-role="reference-only">
      <circle id="anchor/body-center" class="guide" cx="705" cy="704" r="10"/>
      <circle id="anchor/head-top" class="guide" cx="705" cy="270" r="10"/>
      <circle id="anchor/left-ear-pivot" class="guide" cx="516" cy="313" r="10"/>
      <circle id="anchor/right-ear-pivot" class="guide" cx="979" cy="334" r="10"/>
      <circle id="anchor/left-eye" class="guide" cx="432" cy="611" r="10"/>
      <circle id="anchor/right-eye" class="guide" cx="747" cy="639" r="10"/>
      <circle id="anchor/left-foot-outer-pivot" class="guide" cx="425" cy="995" r="10"/>
      <circle id="anchor/left-foot-inner-pivot" class="guide" cx="600" cy="1015" r="10"/>
      <circle id="anchor/right-foot-inner-pivot" class="guide" cx="806" cy="1020" r="10"/>
      <circle id="anchor/right-foot-outer-pivot" class="guide" cx="1005" cy="1000" r="10"/>
    </g>
  </g>
</svg>
